<svg xmlns="http://www.w3.org/2000/svg" viewBox="0 0 64 64" width="64" height="64">
  <rect width="64" height="64" rx="14" fill="#B8342E"/>
  <g transform="translate(0,4)">
    <path d="M14 12h11.5c3.6 0 6.5 2.8 6.5 6.5 0 3.1-2 5.7-5 6.4l7.5 12.1h-6.5L21 26.5h-1V37h-6V12Zm6 9.5h5c1.4 0 2.4-1 2.4-2.3v-2.4c0-1.3-1-2.3-2.4-2.3h-5v7Z" fill="#fff"/>
    <path d="M36 30c0-4 3.4-7 7.2-7 3.6 0 6.5 2.3 7 5.6h-4.6c-.3-1-1.2-1.7-2.4-1.7-1.6 0-2.5 1.2-2.5 2.6 0 1.6 1.4 2.4 3.5 2.8 3.6.8 6.2 2.1 6.2 5.8 0 3.5-3 6.2-7.2 6.2-4 0-7.2-2.3-7.5-6.2h4.7c.3 1.2 1.3 2 2.9 2 1.5 0 2.6-.8 2.6-2 0-1.4-1.2-2-3.6-2.6-3.4-.8-6.2-2-6.2-5.5Z" fill="#fff"/>
  </g>
</svg>
